<svg width="1200" height="140" viewBox="0 0 1200 140" xmlns="http://www.w3.org/2000/svg" role="img" aria-label="automate everything. secure it all."><rect width="1200" height="140" fill="#1a0b2e"/><circle cx="896" cy="18" r="1.2" fill="#ffffff"><animate attributeName="opacity" values="0.2;1;0.2" dur="3.6s" repeatCount="indefinite"/></circle><circle cx="720" cy="24" r="1.2" fill="#ffffff"><animate attributeName="opacity" values="0.2;1;0.2" dur="3.2s" repeatCount="indefinite"/></circle><circle cx="706" cy="6" r="1.2" fill="#ffffff"><animate attributeName="opacity" values="0.2;1;0.2" dur="3.0s" repeatCount="indefinite"/></circle><circle cx="560" cy="19" r="1.2" fill="#ffffff"><animate attributeName="opacity" values="0.2;1;0.2" dur="3.4s" repeatCount="indefinite"/></circle><circle cx="105" cy="30" r="1.2" fill="#ffffff"><animate attributeName="opacity" values="0.2;1;0.2" dur="3.0s" repeatCount="indefinite"/></circle><circle cx="980" cy="25" r="1.2" fill="#ffffff"><animate attributeName="opacity" values="0.2;1;0.2" dur="3.2s" repeatCount="indefinite"/></circle><polygon points="0.0,58.5 46.2,58.5 0.0,140.0" fill="#b1219c" stroke="#b1219c" stroke-width="0.5"/><polygon points="46.2,58.5 46.2,140.0 0.0,140.0" fill="#75169f" stroke="#75169f" stroke-width="0.5"/><polygon points="46.2,58.5 92.3,58.7 46.2,140.0" fill="#b1209c" stroke="#b1209c" stroke-width="0.5"/><polygon points="92.3,58.7 92.3,140.0 46.2,140.0" fill="#75169f" stroke="#75169f" stroke-width="0.5"/><polygon points="92.3,58.7 138.5,58.9 92.3,140.0" fill="#b0209c" stroke="#b0209c" stroke-width="0.5"/><polygon points="138.5,58.9 138.5,140.0 92.3,140.0" fill="#75169f" stroke="#75169f" stroke-width="0.5"/><polygon points="138.5,58.9 184.6,59.1 138.5,140.0" fill="#b0209c" stroke="#b0209c" stroke-width="0.5"/><polygon points="184.6,59.1 184.6,140.0 138.5,140.0" fill="#75169f" stroke="#75169f" stroke-width="0.5"/><polygon points="184.6,59.1 230.8,59.4 184.6,140.0" fill="#b0209c" stroke="#b0209c" stroke-width="0.5"/><polygon points="230.8,59.4 230.8,140.0 184.6,140.0" fill="#75169f" stroke="#75169f" stroke-width="0.5"/><polygon points="230.8,59.4 276.9,59.6 230.8,140.0" fill="#af209c" stroke="#af209c" stroke-width="0.5"/><polygon points="276.9,59.6 276.9,140.0 230.8,140.0" fill="#75169f" stroke="#75169f" stroke-width="0.5"/><polygon points="276.9,59.6 323.1,59.8 276.9,140.0" fill="#af209c" stroke="#af209c" stroke-width="0.5"/><polygon points="323.1,59.8 323.1,140.0 276.9,140.0" fill="#75169f" stroke="#75169f" stroke-width="0.5"/><polygon points="323.1,59.8 369.2,59.9 323.1,140.0" fill="#af209c" stroke="#af209c" stroke-width="0.5"/><polygon points="369.2,59.9 369.2,140.0 323.1,140.0" fill="#74169f" stroke="#74169f" stroke-width="0.5"/><polygon points="369.2,59.9 415.4,60.1 369.2,140.0" fill="#af209c" stroke="#af209c" stroke-width="0.5"/><polygon points="415.4,60.1 415.4,140.0 369.2,140.0" fill="#74169f" stroke="#74169f" stroke-width="0.5"/><polygon points="415.4,60.1 461.5,62.8 415.4,140.0" fill="#ad209c" stroke="#ad209c" stroke-width="0.5"/><polygon points="461.5,62.8 461.5,140.0 415.4,140.0" fill="#7216a0" stroke="#7216a0" stroke-width="0.5"/><polygon points="461.5,62.8 507.7,67.8 461.5,140.0" fill="#a71f9c" stroke="#a71f9c" stroke-width="0.5"/><polygon points="507.7,67.8 507.7,140.0 461.5,140.0" fill="#6f15a0" stroke="#6f15a0" stroke-width="0.5"/><polygon points="507.7,67.8 553.8,74.5 507.7,140.0" fill="#9e1d9d" stroke="#9e1d9d" stroke-width="0.5"/><polygon points="553.8,74.5 553.8,140.0 507.7,140.0" fill="#6a14a0" stroke="#6a14a0" stroke-width="0.5"/><polygon points="553.8,74.5 600.0,82.0 553.8,140.0" fill="#941c9e" stroke="#941c9e" stroke-width="0.5"/><polygon points="600.0,82.0 600.0,140.0 553.8,140.0" fill="#6413a0" stroke="#6413a0" stroke-width="0.5"/><polygon points="600.0,82.0 646.2,89.5 600.0,140.0" fill="#891a9e" stroke="#891a9e" stroke-width="0.5"/><polygon points="646.2,89.5 646.2,140.0 600.0,140.0" fill="#5f12a1" stroke="#5f12a1" stroke-width="0.5"/><polygon points="646.2,89.5 692.3,96.2 646.2,140.0" fill="#7f189f" stroke="#7f189f" stroke-width="0.5"/><polygon points="692.3,96.2 692.3,140.0 646.2,140.0" fill="#5a12a1" stroke="#5a12a1" stroke-width="0.5"/><polygon points="692.3,96.2 738.5,101.2 692.3,140.0" fill="#76169f" stroke="#76169f" stroke-width="0.5"/><polygon points="738.5,101.2 738.5,140.0 692.3,140.0" fill="#5611a1" stroke="#5611a1" stroke-width="0.5"/><polygon points="738.5,101.2 784.6,103.8 738.5,140.0" fill="#7115a0" stroke="#7115a0" stroke-width="0.5"/><polygon points="784.6,103.8 784.6,140.0 738.5,140.0" fill="#5411a1" stroke="#5411a1" stroke-width="0.5"/><polygon points="784.6,103.8 830.8,103.9 784.6,140.0" fill="#6f15a0" stroke="#6f15a0" stroke-width="0.5"/><polygon points="830.8,103.9 830.8,140.0 784.6,140.0" fill="#5411a1" stroke="#5411a1" stroke-width="0.5"/><polygon points="830.8,103.9 876.9,103.4 830.8,140.0" fill="#6f15a0" stroke="#6f15a0" stroke-width="0.5"/><polygon points="876.9,103.4 876.9,140.0 830.8,140.0" fill="#5511a1" stroke="#5511a1" stroke-width="0.5"/><polygon points="876.9,103.4 923.1,102.5 876.9,140.0" fill="#7015a0" stroke="#7015a0" stroke-width="0.5"/><polygon points="923.1,102.5 923.1,140.0 876.9,140.0" fill="#5511a1" stroke="#5511a1" stroke-width="0.5"/><polygon points="923.1,102.5 969.2,101.3 923.1,140.0" fill="#7216a0" stroke="#7216a0" stroke-width="0.5"/><polygon points="969.2,101.3 969.2,140.0 923.1,140.0" fill="#5611a1" stroke="#5611a1" stroke-width="0.5"/><polygon points="969.2,101.3 1015.4,100.1 969.2,140.0" fill="#7316a0" stroke="#7316a0" stroke-width="0.5"/><polygon points="1015.4,100.1 1015.4,140.0 969.2,140.0" fill="#5711a1" stroke="#5711a1" stroke-width="0.5"/><polygon points="1015.4,100.1 1061.5,99.0 1015.4,140.0" fill="#75169f" stroke="#75169f" stroke-width="0.5"/><polygon points="1061.5,99.0 1061.5,140.0 1015.4,140.0" fill="#5811a1" stroke="#5811a1" stroke-width="0.5"/><polygon points="1061.5,99.0 1107.7,98.0 1061.5,140.0" fill="#77169f" stroke="#77169f" stroke-width="0.5"/><polygon points="1107.7,98.0 1107.7,140.0 1061.5,140.0" fill="#5911a1" stroke="#5911a1" stroke-width="0.5"/><polygon points="1107.7,98.0 1153.8,97.3 1107.7,140.0" fill="#78179f" stroke="#78179f" stroke-width="0.5"/><polygon points="1153.8,97.3 1153.8,140.0 1107.7,140.0" fill="#5911a1" stroke="#5911a1" stroke-width="0.5"/><polygon points="1153.8,97.3 1200.0,97.0 1153.8,140.0" fill="#79179f" stroke="#79179f" stroke-width="0.5"/><polygon points="1200.0,97.0 1200.0,140.0 1153.8,140.0" fill="#5911a1" stroke="#5911a1" stroke-width="0.5"/><text x="600.0" y="40" font-family="monospace" font-size="18" font-weight="700" fill="#00ffff" text-anchor="middle" letter-spacing="1">automate everything. secure it all.</text></svg>
