<svg width="1200" height="300" viewBox="0 0 1200 300" xmlns="http://www.w3.org/2000/svg" role="img" aria-label="rathosops — low-poly retrowave header"><defs><linearGradient id="sky" x1="0" y1="0" x2="0" y2="1"><stop offset="0%" stop-color="#1a0b2e"/><stop offset="50%" stop-color="#3a0ca3"/><stop offset="100%" stop-color="#7209b7"/></linearGradient></defs><rect width="1200" height="300" fill="url(#sky)"/><circle cx="896" cy="48" r="1.2" fill="#ffffff"><animate attributeName="opacity" values="0.2;1;0.2" dur="3.6s" repeatCount="indefinite"/></circle><circle cx="720" cy="66" r="1.2" fill="#ffffff"><animate attributeName="opacity" values="0.2;1;0.2" dur="3.2s" repeatCount="indefinite"/></circle><circle cx="706" cy="17" r="1.2" fill="#ffffff"><animate attributeName="opacity" values="0.2;1;0.2" dur="3.0s" repeatCount="indefinite"/></circle><circle cx="560" cy="53" r="1.2" fill="#ffffff"><animate attributeName="opacity" values="0.2;1;0.2" dur="3.4s" repeatCount="indefinite"/></circle><circle cx="105" cy="82" r="1.2" fill="#ffffff"><animate attributeName="opacity" values="0.2;1;0.2" dur="3.0s" repeatCount="indefinite"/></circle><circle cx="980" cy="70" r="1.2" fill="#ffffff"><animate attributeName="opacity" values="0.2;1;0.2" dur="3.2s" repeatCount="indefinite"/></circle><circle cx="512" cy="58" r="1.2" fill="#ffffff"><animate attributeName="opacity" values="0.2;1;0.2" dur="2.6s" repeatCount="indefinite"/></circle><circle cx="245" cy="43" r="1.2" fill="#ffffff"><animate attributeName="opacity" values="0.2;1;0.2" dur="3.3s" repeatCount="indefinite"/></circle><circle cx="998" cy="11" r="1.2" fill="#ffffff"><animate attributeName="opacity" values="0.2;1;0.2" dur="3.4s" repeatCount="indefinite"/></circle><polygon points="600.0,175.0 528.0,175.0 529.1,162.5" fill="#ca08ed"/><polygon points="600.0,175.0 529.1,162.5 532.3,150.4" fill="#e018c9"/><polygon points="600.0,175.0 532.3,150.4 537.6,139.0" fill="#f527a7"/><polygon points="600.0,175.0 537.6,139.0 544.8,128.7" fill="#ff4790"/><polygon points="600.0,175.0 544.8,128.7 553.7,119.8" fill="#ff7783"/><polygon points="600.0,175.0 553.7,119.8 564.0,112.6" fill="#ff9f78"/><polygon points="600.0,175.0 564.0,112.6 575.4,107.3" fill="#ffbd70"/><polygon points="600.0,175.0 575.4,107.3 587.5,104.1" fill="#ffd36a"/><polygon points="600.0,175.0 587.5,104.1 600.0,103.0" fill="#ffdd67"/><polygon points="600.0,175.0 600.0,103.0 612.5,104.1" fill="#ffdd67"/><polygon points="600.0,175.0 612.5,104.1 624.6,107.3" fill="#ffd36a"/><polygon points="600.0,175.0 624.6,107.3 636.0,112.6" fill="#ffbd70"/><polygon points="600.0,175.0 636.0,112.6 646.3,119.8" fill="#ff9f78"/><polygon points="600.0,175.0 646.3,119.8 655.2,128.7" fill="#ff7783"/><polygon points="600.0,175.0 655.2,128.7 662.4,139.0" fill="#ff4790"/><polygon points="600.0,175.0 662.4,139.0 667.7,150.4" fill="#f527a7"/><polygon points="600.0,175.0 667.7,150.4 670.9,162.5" fill="#e018c9"/><polygon points="600.0,175.0 670.9,162.5 672.0,175.0" fill="#ca08ed"/><rect x="528.0" y="175.0" width="144" height="1.60" fill="#1a0b2e"/><rect x="528.0" y="167.8" width="144" height="1.45" fill="#1a0b2e"/><rect x="528.0" y="160.6" width="144" height="1.30" fill="#1a0b2e"/><rect x="528.0" y="153.4" width="144" height="1.15" fill="#1a0b2e"/><rect x="528.0" y="146.2" width="144" height="1.00" fill="#1a0b2e"/><rect x="528.0" y="139.0" width="144" height="0.85" fill="#1a0b2e"/><polygon points="0.0,239.1 60.0,236.1 0.0,250.0" fill="#4a0bae" stroke="#4a0bae" stroke-width="0.5"/><polygon points="60.0,236.1 60.0,250.0 0.0,250.0" fill="#430ba9" stroke="#430ba9" stroke-width="0.5"/><polygon points="60.0,236.1 120.0,228.6 60.0,250.0" fill="#500ab2" stroke="#500ab2" stroke-width="0.5"/><polygon points="120.0,228.6 120.0,250.0 60.0,250.0" fill="#480bac" stroke="#480bac" stroke-width="0.5"/><polygon points="120.0,228.6 180.0,218.6 120.0,250.0" fill="#5b09ba" stroke="#5b09ba" stroke-width="0.5"/><polygon points="180.0,218.6 180.0,250.0 120.0,250.0" fill="#4e0ab1" stroke="#4e0ab1" stroke-width="0.5"/><polygon points="180.0,218.6 240.0,207.8 180.0,250.0" fill="#6908c3" stroke="#6908c3" stroke-width="0.5"/><polygon points="240.0,207.8 240.0,250.0 180.0,250.0" fill="#550ab5" stroke="#550ab5" stroke-width="0.5"/><polygon points="240.0,207.8 300.0,198.4 240.0,250.0" fill="#7507cc" stroke="#7507cc" stroke-width="0.5"/><polygon points="300.0,198.4 300.0,250.0 240.0,250.0" fill="#5b09ba" stroke="#5b09ba" stroke-width="0.5"/><polygon points="300.0,198.4 360.0,192.2 300.0,250.0" fill="#7f06d3" stroke="#7f06d3" stroke-width="0.5"/><polygon points="360.0,192.2 360.0,250.0 300.0,250.0" fill="#5f09bc" stroke="#5f09bc" stroke-width="0.5"/><polygon points="360.0,192.2 420.0,190.8 360.0,250.0" fill="#8405d6" stroke="#8405d6" stroke-width="0.5"/><polygon points="420.0,190.8 420.0,250.0 360.0,250.0" fill="#5f09bd" stroke="#5f09bd" stroke-width="0.5"/><polygon points="420.0,190.8 480.0,191.0 420.0,250.0" fill="#8505d7" stroke="#8505d7" stroke-width="0.5"/><polygon points="480.0,191.0 480.0,250.0 420.0,250.0" fill="#5f09bd" stroke="#5f09bd" stroke-width="0.5"/><polygon points="480.0,191.0 540.0,191.3 480.0,250.0" fill="#8505d7" stroke="#8505d7" stroke-width="0.5"/><polygon points="540.0,191.3 540.0,250.0 480.0,250.0" fill="#5f09bd" stroke="#5f09bd" stroke-width="0.5"/><polygon points="540.0,191.3 600.0,191.6 540.0,250.0" fill="#8405d6" stroke="#8405d6" stroke-width="0.5"/><polygon points="600.0,191.6 600.0,250.0 540.0,250.0" fill="#5f09bd" stroke="#5f09bd" stroke-width="0.5"/><polygon points="600.0,191.6 660.0,191.9 600.0,250.0" fill="#8405d6" stroke="#8405d6" stroke-width="0.5"/><polygon points="660.0,191.9 660.0,250.0 600.0,250.0" fill="#5f09bc" stroke="#5f09bc" stroke-width="0.5"/><polygon points="660.0,191.9 720.0,192.2 660.0,250.0" fill="#8305d6" stroke="#8305d6" stroke-width="0.5"/><polygon points="720.0,192.2 720.0,250.0 660.0,250.0" fill="#5f09bc" stroke="#5f09bc" stroke-width="0.5"/><polygon points="720.0,192.2 780.0,192.4 720.0,250.0" fill="#8305d6" stroke="#8305d6" stroke-width="0.5"/><polygon points="780.0,192.4 780.0,250.0 720.0,250.0" fill="#5f09bc" stroke="#5f09bc" stroke-width="0.5"/><polygon points="780.0,192.4 840.0,192.6 780.0,250.0" fill="#8305d5" stroke="#8305d5" stroke-width="0.5"/><polygon points="840.0,192.6 840.0,250.0 780.0,250.0" fill="#5e09bc" stroke="#5e09bc" stroke-width="0.5"/><polygon points="840.0,192.6 900.0,193.6 840.0,250.0" fill="#8205d5" stroke="#8205d5" stroke-width="0.5"/><polygon points="900.0,193.6 900.0,250.0 840.0,250.0" fill="#5e09bc" stroke="#5e09bc" stroke-width="0.5"/><polygon points="900.0,193.6 960.0,195.1 900.0,250.0" fill="#8106d4" stroke="#8106d4" stroke-width="0.5"/><polygon points="960.0,195.1 960.0,250.0 900.0,250.0" fill="#5d09bb" stroke="#5d09bb" stroke-width="0.5"/><polygon points="960.0,195.1 1020.0,196.8 960.0,250.0" fill="#7e06d2" stroke="#7e06d2" stroke-width="0.5"/><polygon points="1020.0,196.8 1020.0,250.0 960.0,250.0" fill="#5c09ba" stroke="#5c09ba" stroke-width="0.5"/><polygon points="1020.0,196.8 1080.0,198.5 1020.0,250.0" fill="#7c06d1" stroke="#7c06d1" stroke-width="0.5"/><polygon points="1080.0,198.5 1080.0,250.0 1020.0,250.0" fill="#5b09ba" stroke="#5b09ba" stroke-width="0.5"/><polygon points="1080.0,198.5 1140.0,199.7 1080.0,250.0" fill="#7b06d0" stroke="#7b06d0" stroke-width="0.5"/><polygon points="1140.0,199.7 1140.0,250.0 1080.0,250.0" fill="#5a09b9" stroke="#5a09b9" stroke-width="0.5"/><polygon points="1140.0,199.7 1200.0,200.1 1140.0,250.0" fill="#7906cf" stroke="#7906cf" stroke-width="0.5"/><polygon points="1200.0,200.1 1200.0,250.0 1140.0,250.0" fill="#5a09b9" stroke="#5a09b9" stroke-width="0.5"/><polygon points="0.0,208.3 75.0,212.7 0.0,300.0" fill="#9e2074" stroke="#9e2074" stroke-width="0.5"/><polygon points="75.0,212.7 75.0,300.0 0.0,300.0" fill="#62175e" stroke="#62175e" stroke-width="0.5"/><polygon points="75.0,212.7 150.0,223.5 75.0,300.0" fill="#941e70" stroke="#941e70" stroke-width="0.5"/><polygon points="150.0,223.5 150.0,300.0 75.0,300.0" fill="#5b165c" stroke="#5b165c" stroke-width="0.5"/><polygon points="150.0,223.5 225.0,236.9 150.0,300.0" fill="#841c6b" stroke="#841c6b" stroke-width="0.5"/><polygon points="225.0,236.9 225.0,300.0 150.0,300.0" fill="#531559" stroke="#531559" stroke-width="0.5"/><polygon points="225.0,236.9 300.0,248.9 225.0,300.0" fill="#741a65" stroke="#741a65" stroke-width="0.5"/><polygon points="300.0,248.9 300.0,300.0 225.0,300.0" fill="#4b1456" stroke="#4b1456" stroke-width="0.5"/><polygon points="300.0,248.9 375.0,255.9 300.0,300.0" fill="#671860" stroke="#671860" stroke-width="0.5"/><polygon points="375.0,255.9 375.0,300.0 300.0,300.0" fill="#461354" stroke="#461354" stroke-width="0.5"/><polygon points="375.0,255.9 450.0,254.3 375.0,300.0" fill="#64175f" stroke="#64175f" stroke-width="0.5"/><polygon points="450.0,254.3 450.0,300.0 375.0,300.0" fill="#471355" stroke="#471355" stroke-width="0.5"/><polygon points="450.0,254.3 525.0,244.9 450.0,300.0" fill="#6b1862" stroke="#6b1862" stroke-width="0.5"/><polygon points="525.0,244.9 525.0,300.0 450.0,300.0" fill="#4e1457" stroke="#4e1457" stroke-width="0.5"/><polygon points="525.0,244.9 600.0,231.6 525.0,300.0" fill="#7a1b67" stroke="#7a1b67" stroke-width="0.5"/><polygon points="600.0,231.6 600.0,300.0 525.0,300.0" fill="#56155a" stroke="#56155a" stroke-width="0.5"/><polygon points="600.0,231.6 675.0,218.2 600.0,300.0" fill="#8b1d6d" stroke="#8b1d6d" stroke-width="0.5"/><polygon points="675.0,218.2 675.0,300.0 600.0,300.0" fill="#5f175d" stroke="#5f175d" stroke-width="0.5"/><polygon points="675.0,218.2 750.0,208.8 675.0,300.0" fill="#9a1f72" stroke="#9a1f72" stroke-width="0.5"/><polygon points="750.0,208.8 750.0,300.0 675.0,300.0" fill="#65185f" stroke="#65185f" stroke-width="0.5"/><polygon points="750.0,208.8 825.0,207.0 750.0,300.0" fill="#a12075" stroke="#a12075" stroke-width="0.5"/><polygon points="825.0,207.0 825.0,300.0 750.0,300.0" fill="#661860" stroke="#661860" stroke-width="0.5"/><polygon points="825.0,207.0 900.0,211.6 825.0,300.0" fill="#9f2074" stroke="#9f2074" stroke-width="0.5"/><polygon points="900.0,211.6 900.0,300.0 825.0,300.0" fill="#63175f" stroke="#63175f" stroke-width="0.5"/><polygon points="900.0,211.6 975.0,219.6 900.0,300.0" fill="#971f71" stroke="#971f71" stroke-width="0.5"/><polygon points="975.0,219.6 975.0,300.0 900.0,300.0" fill="#5e175d" stroke="#5e175d" stroke-width="0.5"/><polygon points="975.0,219.6 1050.0,228.4 975.0,300.0" fill="#8c1d6d" stroke="#8c1d6d" stroke-width="0.5"/><polygon points="1050.0,228.4 1050.0,300.0 975.0,300.0" fill="#58165b" stroke="#58165b" stroke-width="0.5"/><polygon points="1050.0,228.4 1125.0,235.5 1050.0,300.0" fill="#821c6a" stroke="#821c6a" stroke-width="0.5"/><polygon points="1125.0,235.5 1125.0,300.0 1050.0,300.0" fill="#541559" stroke="#541559" stroke-width="0.5"/><polygon points="1125.0,235.5 1200.0,238.5 1125.0,300.0" fill="#7b1b67" stroke="#7b1b67" stroke-width="0.5"/><polygon points="1200.0,238.5 1200.0,300.0 1125.0,300.0" fill="#521558" stroke="#521558" stroke-width="0.5"/><rect x="0" y="0" width="1200" height="2.5" fill="#00ffff" opacity="0.08"><animate attributeName="y" values="-3;300" dur="5s" repeatCount="indefinite"/></rect><text x="600.0" y="90" font-family="'Press Start 2P', monospace" font-size="44" font-weight="700" fill="#ffffff" text-anchor="middle">rathosops</text><text x="600.0" y="122" font-family="monospace" font-size="13" font-weight="400" fill="#00ffff" text-anchor="middle" letter-spacing="1">&#9656; backend &#8594; secure, automated &amp; observable pipelines &#9666;</text><rect x="1" y="1" width="1198" height="298" rx="10" fill="none" stroke="#ff6bd6" stroke-width="1.5" opacity="0.7"/></svg>
