<svg width="460" height="200" viewBox="0 0 460 200" xmlns="http://www.w3.org/2000/svg" role="img" aria-label="Top languages">
  <defs>
    <linearGradient id="title" x1="0" y1="0" x2="1" y2="0">
      <stop offset="0%" stop-color="#ff6bd6"/>
      <stop offset="100%" stop-color="#00ffff"/>
    </linearGradient>
    <linearGradient id="frame" x1="0" y1="0" x2="1" y2="1">
      <stop offset="0%" stop-color="#ff6bd6"/>
      <stop offset="50%" stop-color="#bf00ff"/>
      <stop offset="100%" stop-color="#00ffff"/>
    </linearGradient>
    <linearGradient id="panel" x1="0" y1="0" x2="0" y2="1">
      <stop offset="0%" stop-color="#241046"/>
      <stop offset="100%" stop-color="#1a0b2e"/>
    </linearGradient>
  </defs>
  <rect x="0.75" y="0.75" width="458.5" height="198.5" rx="10" fill="url(#panel)"
        stroke="url(#frame)" stroke-width="1.5"/>
  <rect x="0" y="0" width="460" height="2.5" fill="#00ffff" opacity="0.08">
    <animate attributeName="y" values="-3;200" dur="5s" repeatCount="indefinite"/>
  </rect>
  <text x="18" y="30" font-family="'Press Start 2P', monospace" font-size="13"
        fill="url(#title)">&#9656; rathosops :: languages</text>
  <line x1="18" y1="40" x2="442" y2="40" stroke="#bf00ff" stroke-width="1" opacity="0.4"/><rect x="18.0" y="58" width="299.8" height="16" fill="#3572A5"><title>Python 70.7%</title></rect><rect x="317.8" y="58" width="60.9" height="16" fill="#3178c6"><title>TypeScript 14.4%</title></rect><rect x="378.7" y="58" width="19.1" height="16" fill="#663399"><title>CSS 4.5%</title></rect><rect x="397.8" y="58" width="12.4" height="16" fill="#89e051"><title>Shell 2.9%</title></rect><rect x="410.3" y="58" width="10.2" height="16" fill="#00ADD8"><title>Go 2.4%</title></rect><rect x="420.5" y="58" width="9.7" height="16" fill="#71b417"><title>Game Maker Language 2.3%</title></rect><rect x="430.2" y="58" width="6.4" height="16" fill="#f1e05a"><title>JavaScript 1.5%</title></rect><rect x="436.6" y="58" width="5.4" height="16" fill="#44a51c"><title>QML 1.3%</title></rect><rect x="18" y="58" width="424" height="16" rx="4" fill="none" stroke="#bf00ff" stroke-width="1" opacity="0.6"/><circle cx="24.0" cy="92" r="5" fill="#3572A5"/><text x="36.0" y="96" font-family="monospace" font-size="12" fill="#e0c3fc">Python <tspan fill="#00ffff">70.7%</tspan></text><circle cx="236.0" cy="92" r="5" fill="#3178c6"/><text x="248.0" y="96" font-family="monospace" font-size="12" fill="#e0c3fc">TypeScript <tspan fill="#00ffff">14.4%</tspan></text><circle cx="24.0" cy="116" r="5" fill="#663399"/><text x="36.0" y="120" font-family="monospace" font-size="12" fill="#e0c3fc">CSS <tspan fill="#00ffff">4.5%</tspan></text><circle cx="236.0" cy="116" r="5" fill="#89e051"/><text x="248.0" y="120" font-family="monospace" font-size="12" fill="#e0c3fc">Shell <tspan fill="#00ffff">2.9%</tspan></text><circle cx="24.0" cy="140" r="5" fill="#00ADD8"/><text x="36.0" y="144" font-family="monospace" font-size="12" fill="#e0c3fc">Go <tspan fill="#00ffff">2.4%</tspan></text><circle cx="236.0" cy="140" r="5" fill="#71b417"/><text x="248.0" y="144" font-family="monospace" font-size="12" fill="#e0c3fc">Game Maker Language <tspan fill="#00ffff">2.3%</tspan></text><circle cx="24.0" cy="164" r="5" fill="#f1e05a"/><text x="36.0" y="168" font-family="monospace" font-size="12" fill="#e0c3fc">JavaScript <tspan fill="#00ffff">1.5%</tspan></text><circle cx="236.0" cy="164" r="5" fill="#44a51c"/><text x="248.0" y="168" font-family="monospace" font-size="12" fill="#e0c3fc">QML <tspan fill="#00ffff">1.3%</tspan></text></svg>
