<svg width="460" height="210" viewBox="0 0 460 210" xmlns="http://www.w3.org/2000/svg" role="img" aria-label="Top languages — equipped skills"><defs><linearGradient id="title" x1="0" y1="0" x2="1" y2="0"><stop offset="0%" stop-color="#ff6bd6"/><stop offset="100%" stop-color="#00ffff"/></linearGradient><linearGradient id="frame" x1="0" y1="0" x2="1" y2="1"><stop offset="0%" stop-color="#ff6bd6"/><stop offset="50%" stop-color="#bf00ff"/><stop offset="100%" stop-color="#00ffff"/></linearGradient><linearGradient id="panel" x1="0" y1="0" x2="0" y2="1"><stop offset="0%" stop-color="#241046"/><stop offset="100%" stop-color="#1a0b2e"/></linearGradient></defs><rect x="0.75" y="0.75" width="458.5" height="208.5" rx="10" fill="url(#panel)" stroke="url(#frame)" stroke-width="1.5"/><rect x="0" y="0" width="460" height="2.5" fill="#00ffff" opacity="0.08"><animate attributeName="y" values="-3;210" dur="5s" repeatCount="indefinite"/></rect><text x="18" y="30" font-family="'Press Start 2P', monospace" font-size="13" font-weight="400" fill="url(#title)" text-anchor="start">&#9656; rathosops :: equipped skills</text><line x1="18" y1="40" x2="442" y2="40" stroke="#bf00ff" stroke-width="1" opacity="0.4"/><circle cx="26" cy="66" r="5" fill="#3572A5"/><text x="40" y="70" font-family="monospace" font-size="12" font-weight="400" fill="#e0c3fc" text-anchor="start">Python</text><rect x="190.0" y="59" width="8.1" height="11" rx="1" fill="#3572A5" opacity="1"/><rect x="200.1" y="59" width="8.1" height="11" rx="1" fill="#3572A5" opacity="1"/><rect x="210.2" y="59" width="8.1" height="11" rx="1" fill="#3572A5" opacity="1"/><rect x="220.3" y="59" width="8.1" height="11" rx="1" fill="#3572A5" opacity="1"/><rect x="230.4" y="59" width="8.1" height="11" rx="1" fill="#3572A5" opacity="1"/><rect x="240.6" y="59" width="8.1" height="11" rx="1" fill="#3572A5" opacity="1"/><rect x="250.7" y="59" width="8.1" height="11" rx="1" fill="#3572A5" opacity="1"/><rect x="260.8" y="59" width="8.1" height="11" rx="1" fill="#3572A5" opacity="1"/><rect x="270.9" y="59" width="8.1" height="11" rx="1" fill="#3572A5" opacity="1"/><rect x="281.0" y="59" width="8.1" height="11" rx="1" fill="#3572A5" opacity="1"/><rect x="291.1" y="59" width="8.1" height="11" rx="1" fill="#3572A5" opacity="1"/><rect x="301.2" y="59" width="8.1" height="11" rx="1" fill="#3572A5" opacity="1"/><rect x="311.3" y="59" width="8.1" height="11" rx="1" fill="#3572A5" opacity="1"/><rect x="321.4" y="59" width="8.1" height="11" rx="1" fill="#2a1a44" opacity="0.6"/><rect x="331.6" y="59" width="8.1" height="11" rx="1" fill="#2a1a44" opacity="0.6"/><rect x="341.7" y="59" width="8.1" height="11" rx="1" fill="#2a1a44" opacity="0.6"/><rect x="351.8" y="59" width="8.1" height="11" rx="1" fill="#2a1a44" opacity="0.6"/><rect x="361.9" y="59" width="8.1" height="11" rx="1" fill="#2a1a44" opacity="0.6"/><text x="442" y="70" font-family="monospace" font-size="12" font-weight="400" fill="#00ffff" text-anchor="end">70.7%</text><circle cx="26" cy="89" r="5" fill="#3178c6"/><text x="40" y="93" font-family="monospace" font-size="12" font-weight="400" fill="#e0c3fc" text-anchor="start">TypeScript</text><rect x="190.0" y="82" width="8.1" height="11" rx="1" fill="#3178c6" opacity="1"/><rect x="200.1" y="82" width="8.1" height="11" rx="1" fill="#3178c6" opacity="1"/><rect x="210.2" y="82" width="8.1" height="11" rx="1" fill="#3178c6" opacity="1"/><rect x="220.3" y="82" width="8.1" height="11" rx="1" fill="#2a1a44" opacity="0.6"/><rect x="230.4" y="82" width="8.1" height="11" rx="1" fill="#2a1a44" opacity="0.6"/><rect x="240.6" y="82" width="8.1" height="11" rx="1" fill="#2a1a44" opacity="0.6"/><rect x="250.7" y="82" width="8.1" height="11" rx="1" fill="#2a1a44" opacity="0.6"/><rect x="260.8" y="82" width="8.1" height="11" rx="1" fill="#2a1a44" opacity="0.6"/><rect x="270.9" y="82" width="8.1" height="11" rx="1" fill="#2a1a44" opacity="0.6"/><rect x="281.0" y="82" width="8.1" height="11" rx="1" fill="#2a1a44" opacity="0.6"/><rect x="291.1" y="82" width="8.1" height="11" rx="1" fill="#2a1a44" opacity="0.6"/><rect x="301.2" y="82" width="8.1" height="11" rx="1" fill="#2a1a44" opacity="0.6"/><rect x="311.3" y="82" width="8.1" height="11" rx="1" fill="#2a1a44" opacity="0.6"/><rect x="321.4" y="82" width="8.1" height="11" rx="1" fill="#2a1a44" opacity="0.6"/><rect x="331.6" y="82" width="8.1" height="11" rx="1" fill="#2a1a44" opacity="0.6"/><rect x="341.7" y="82" width="8.1" height="11" rx="1" fill="#2a1a44" opacity="0.6"/><rect x="351.8" y="82" width="8.1" height="11" rx="1" fill="#2a1a44" opacity="0.6"/><rect x="361.9" y="82" width="8.1" height="11" rx="1" fill="#2a1a44" opacity="0.6"/><text x="442" y="93" font-family="monospace" font-size="12" font-weight="400" fill="#00ffff" text-anchor="end">14.4%</text><circle cx="26" cy="112" r="5" fill="#663399"/><text x="40" y="116" font-family="monospace" font-size="12" font-weight="400" fill="#e0c3fc" text-anchor="start">CSS</text><rect x="190.0" y="105" width="8.1" height="11" rx="1" fill="#663399" opacity="1"/><rect x="200.1" y="105" width="8.1" height="11" rx="1" fill="#2a1a44" opacity="0.6"/><rect x="210.2" y="105" width="8.1" height="11" rx="1" fill="#2a1a44" opacity="0.6"/><rect x="220.3" y="105" width="8.1" height="11" rx="1" fill="#2a1a44" opacity="0.6"/><rect x="230.4" y="105" width="8.1" height="11" rx="1" fill="#2a1a44" opacity="0.6"/><rect x="240.6" y="105" width="8.1" height="11" rx="1" fill="#2a1a44" opacity="0.6"/><rect x="250.7" y="105" width="8.1" height="11" rx="1" fill="#2a1a44" opacity="0.6"/><rect x="260.8" y="105" width="8.1" height="11" rx="1" fill="#2a1a44" opacity="0.6"/><rect x="270.9" y="105" width="8.1" height="11" rx="1" fill="#2a1a44" opacity="0.6"/><rect x="281.0" y="105" width="8.1" height="11" rx="1" fill="#2a1a44" opacity="0.6"/><rect x="291.1" y="105" width="8.1" height="11" rx="1" fill="#2a1a44" opacity="0.6"/><rect x="301.2" y="105" width="8.1" height="11" rx="1" fill="#2a1a44" opacity="0.6"/><rect x="311.3" y="105" width="8.1" height="11" rx="1" fill="#2a1a44" opacity="0.6"/><rect x="321.4" y="105" width="8.1" height="11" rx="1" fill="#2a1a44" opacity="0.6"/><rect x="331.6" y="105" width="8.1" height="11" rx="1" fill="#2a1a44" opacity="0.6"/><rect x="341.7" y="105" width="8.1" height="11" rx="1" fill="#2a1a44" opacity="0.6"/><rect x="351.8" y="105" width="8.1" height="11" rx="1" fill="#2a1a44" opacity="0.6"/><rect x="361.9" y="105" width="8.1" height="11" rx="1" fill="#2a1a44" opacity="0.6"/><text x="442" y="116" font-family="monospace" font-size="12" font-weight="400" fill="#00ffff" text-anchor="end">4.5%</text><circle cx="26" cy="135" r="5" fill="#89e051"/><text x="40" y="139" font-family="monospace" font-size="12" font-weight="400" fill="#e0c3fc" text-anchor="start">Shell</text><rect x="190.0" y="128" width="8.1" height="11" rx="1" fill="#89e051" opacity="1"/><rect x="200.1" y="128" width="8.1" height="11" rx="1" fill="#2a1a44" opacity="0.6"/><rect x="210.2" y="128" width="8.1" height="11" rx="1" fill="#2a1a44" opacity="0.6"/><rect x="220.3" y="128" width="8.1" height="11" rx="1" fill="#2a1a44" opacity="0.6"/><rect x="230.4" y="128" width="8.1" height="11" rx="1" fill="#2a1a44" opacity="0.6"/><rect x="240.6" y="128" width="8.1" height="11" rx="1" fill="#2a1a44" opacity="0.6"/><rect x="250.7" y="128" width="8.1" height="11" rx="1" fill="#2a1a44" opacity="0.6"/><rect x="260.8" y="128" width="8.1" height="11" rx="1" fill="#2a1a44" opacity="0.6"/><rect x="270.9" y="128" width="8.1" height="11" rx="1" fill="#2a1a44" opacity="0.6"/><rect x="281.0" y="128" width="8.1" height="11" rx="1" fill="#2a1a44" opacity="0.6"/><rect x="291.1" y="128" width="8.1" height="11" rx="1" fill="#2a1a44" opacity="0.6"/><rect x="301.2" y="128" width="8.1" height="11" rx="1" fill="#2a1a44" opacity="0.6"/><rect x="311.3" y="128" width="8.1" height="11" rx="1" fill="#2a1a44" opacity="0.6"/><rect x="321.4" y="128" width="8.1" height="11" rx="1" fill="#2a1a44" opacity="0.6"/><rect x="331.6" y="128" width="8.1" height="11" rx="1" fill="#2a1a44" opacity="0.6"/><rect x="341.7" y="128" width="8.1" height="11" rx="1" fill="#2a1a44" opacity="0.6"/><rect x="351.8" y="128" width="8.1" height="11" rx="1" fill="#2a1a44" opacity="0.6"/><rect x="361.9" y="128" width="8.1" height="11" rx="1" fill="#2a1a44" opacity="0.6"/><text x="442" y="139" font-family="monospace" font-size="12" font-weight="400" fill="#00ffff" text-anchor="end">2.9%</text><circle cx="26" cy="158" r="5" fill="#00ADD8"/><text x="40" y="162" font-family="monospace" font-size="12" font-weight="400" fill="#e0c3fc" text-anchor="start">Go</text><rect x="190.0" y="151" width="8.1" height="11" rx="1" fill="#2a1a44" opacity="0.6"/><rect x="200.1" y="151" width="8.1" height="11" rx="1" fill="#2a1a44" opacity="0.6"/><rect x="210.2" y="151" width="8.1" height="11" rx="1" fill="#2a1a44" opacity="0.6"/><rect x="220.3" y="151" width="8.1" height="11" rx="1" fill="#2a1a44" opacity="0.6"/><rect x="230.4" y="151" width="8.1" height="11" rx="1" fill="#2a1a44" opacity="0.6"/><rect x="240.6" y="151" width="8.1" height="11" rx="1" fill="#2a1a44" opacity="0.6"/><rect x="250.7" y="151" width="8.1" height="11" rx="1" fill="#2a1a44" opacity="0.6"/><rect x="260.8" y="151" width="8.1" height="11" rx="1" fill="#2a1a44" opacity="0.6"/><rect x="270.9" y="151" width="8.1" height="11" rx="1" fill="#2a1a44" opacity="0.6"/><rect x="281.0" y="151" width="8.1" height="11" rx="1" fill="#2a1a44" opacity="0.6"/><rect x="291.1" y="151" width="8.1" height="11" rx="1" fill="#2a1a44" opacity="0.6"/><rect x="301.2" y="151" width="8.1" height="11" rx="1" fill="#2a1a44" opacity="0.6"/><rect x="311.3" y="151" width="8.1" height="11" rx="1" fill="#2a1a44" opacity="0.6"/><rect x="321.4" y="151" width="8.1" height="11" rx="1" fill="#2a1a44" opacity="0.6"/><rect x="331.6" y="151" width="8.1" height="11" rx="1" fill="#2a1a44" opacity="0.6"/><rect x="341.7" y="151" width="8.1" height="11" rx="1" fill="#2a1a44" opacity="0.6"/><rect x="351.8" y="151" width="8.1" height="11" rx="1" fill="#2a1a44" opacity="0.6"/><rect x="361.9" y="151" width="8.1" height="11" rx="1" fill="#2a1a44" opacity="0.6"/><text x="442" y="162" font-family="monospace" font-size="12" font-weight="400" fill="#00ffff" text-anchor="end">2.4%</text><circle cx="26" cy="181" r="5" fill="#71b417"/><text x="40" y="185" font-family="monospace" font-size="12" font-weight="400" fill="#e0c3fc" text-anchor="start">Game Maker Language</text><rect x="190.0" y="174" width="8.1" height="11" rx="1" fill="#2a1a44" opacity="0.6"/><rect x="200.1" y="174" width="8.1" height="11" rx="1" fill="#2a1a44" opacity="0.6"/><rect x="210.2" y="174" width="8.1" height="11" rx="1" fill="#2a1a44" opacity="0.6"/><rect x="220.3" y="174" width="8.1" height="11" rx="1" fill="#2a1a44" opacity="0.6"/><rect x="230.4" y="174" width="8.1" height="11" rx="1" fill="#2a1a44" opacity="0.6"/><rect x="240.6" y="174" width="8.1" height="11" rx="1" fill="#2a1a44" opacity="0.6"/><rect x="250.7" y="174" width="8.1" height="11" rx="1" fill="#2a1a44" opacity="0.6"/><rect x="260.8" y="174" width="8.1" height="11" rx="1" fill="#2a1a44" opacity="0.6"/><rect x="270.9" y="174" width="8.1" height="11" rx="1" fill="#2a1a44" opacity="0.6"/><rect x="281.0" y="174" width="8.1" height="11" rx="1" fill="#2a1a44" opacity="0.6"/><rect x="291.1" y="174" width="8.1" height="11" rx="1" fill="#2a1a44" opacity="0.6"/><rect x="301.2" y="174" width="8.1" height="11" rx="1" fill="#2a1a44" opacity="0.6"/><rect x="311.3" y="174" width="8.1" height="11" rx="1" fill="#2a1a44" opacity="0.6"/><rect x="321.4" y="174" width="8.1" height="11" rx="1" fill="#2a1a44" opacity="0.6"/><rect x="331.6" y="174" width="8.1" height="11" rx="1" fill="#2a1a44" opacity="0.6"/><rect x="341.7" y="174" width="8.1" height="11" rx="1" fill="#2a1a44" opacity="0.6"/><rect x="351.8" y="174" width="8.1" height="11" rx="1" fill="#2a1a44" opacity="0.6"/><rect x="361.9" y="174" width="8.1" height="11" rx="1" fill="#2a1a44" opacity="0.6"/><text x="442" y="185" font-family="monospace" font-size="12" font-weight="400" fill="#00ffff" text-anchor="end">2.3%</text></svg>
