<svg width="460" height="210" viewBox="0 0 460 210" xmlns="http://www.w3.org/2000/svg" role="img" aria-label="GitHub stats — RPG character sheet"><defs><linearGradient id="title" x1="0" y1="0" x2="1" y2="0"><stop offset="0%" stop-color="#ff6bd6"/><stop offset="100%" stop-color="#00ffff"/></linearGradient><linearGradient id="frame" x1="0" y1="0" x2="1" y2="1"><stop offset="0%" stop-color="#ff6bd6"/><stop offset="50%" stop-color="#bf00ff"/><stop offset="100%" stop-color="#00ffff"/></linearGradient><linearGradient id="panel" x1="0" y1="0" x2="0" y2="1"><stop offset="0%" stop-color="#241046"/><stop offset="100%" stop-color="#1a0b2e"/></linearGradient></defs><rect x="0.75" y="0.75" width="458.5" height="208.5" rx="10" fill="url(#panel)" stroke="url(#frame)" stroke-width="1.5"/><rect x="0" y="0" width="460" height="2.5" fill="#00ffff" opacity="0.08"><animate attributeName="y" values="-3;210" dur="5s" repeatCount="indefinite"/></rect><text x="18" y="30" font-family="'Press Start 2P', monospace" font-size="13" font-weight="400" fill="url(#title)" text-anchor="start">&#9656; player :: rathosops</text><line x1="18" y1="40" x2="442" y2="40" stroke="#bf00ff" stroke-width="1" opacity="0.4"/><text x="442" y="30" font-family="'Press Start 2P', monospace" font-size="13" font-weight="400" fill="#00ffff" text-anchor="end">LV 1</text><text x="22" y="60" font-family="'Press Start 2P', monospace" font-size="11" font-weight="400" fill="#ff6bd6" text-anchor="start">XP</text><rect x="60.0" y="50" width="13.9" height="12" rx="1" fill="#2a1a44" opacity="0.6"/><rect x="75.9" y="50" width="13.9" height="12" rx="1" fill="#2a1a44" opacity="0.6"/><rect x="91.8" y="50" width="13.9" height="12" rx="1" fill="#2a1a44" opacity="0.6"/><rect x="107.8" y="50" width="13.9" height="12" rx="1" fill="#2a1a44" opacity="0.6"/><rect x="123.7" y="50" width="13.9" height="12" rx="1" fill="#2a1a44" opacity="0.6"/><rect x="139.6" y="50" width="13.9" height="12" rx="1" fill="#2a1a44" opacity="0.6"/><rect x="155.5" y="50" width="13.9" height="12" rx="1" fill="#2a1a44" opacity="0.6"/><rect x="171.4" y="50" width="13.9" height="12" rx="1" fill="#2a1a44" opacity="0.6"/><rect x="187.3" y="50" width="13.9" height="12" rx="1" fill="#2a1a44" opacity="0.6"/><rect x="203.2" y="50" width="13.9" height="12" rx="1" fill="#2a1a44" opacity="0.6"/><rect x="219.2" y="50" width="13.9" height="12" rx="1" fill="#2a1a44" opacity="0.6"/><rect x="235.1" y="50" width="13.9" height="12" rx="1" fill="#2a1a44" opacity="0.6"/><rect x="251.0" y="50" width="13.9" height="12" rx="1" fill="#2a1a44" opacity="0.6"/><rect x="266.9" y="50" width="13.9" height="12" rx="1" fill="#2a1a44" opacity="0.6"/><rect x="282.8" y="50" width="13.9" height="12" rx="1" fill="#2a1a44" opacity="0.6"/><rect x="298.8" y="50" width="13.9" height="12" rx="1" fill="#2a1a44" opacity="0.6"/><rect x="314.7" y="50" width="13.9" height="12" rx="1" fill="#2a1a44" opacity="0.6"/><rect x="330.6" y="50" width="13.9" height="12" rx="1" fill="#2a1a44" opacity="0.6"/><rect x="346.5" y="50" width="13.9" height="12" rx="1" fill="#2a1a44" opacity="0.6"/><rect x="362.4" y="50" width="13.9" height="12" rx="1" fill="#2a1a44" opacity="0.6"/><rect x="378.3" y="50" width="13.9" height="12" rx="1" fill="#2a1a44" opacity="0.6"/><rect x="394.2" y="50" width="13.9" height="12" rx="1" fill="#2a1a44" opacity="0.6"/><rect x="410.2" y="50" width="13.9" height="12" rx="1" fill="#2a1a44" opacity="0.6"/><rect x="426.1" y="50" width="13.9" height="12" rx="1" fill="#2a1a44" opacity="0.6"/><text x="442" y="60" font-family="monospace" font-size="11" font-weight="400" fill="#e0c3fc" text-anchor="end">0</text><text x="22" y="92" font-family="'Press Start 2P', monospace" font-size="11" font-weight="400" fill="#ff2e97" text-anchor="start">ATK</text><rect x="72.0" y="81" width="10.6" height="12" rx="1" fill="#2a1a44" opacity="0.6"/><rect x="84.6" y="81" width="10.6" height="12" rx="1" fill="#2a1a44" opacity="0.6"/><rect x="97.2" y="81" width="10.6" height="12" rx="1" fill="#2a1a44" opacity="0.6"/><rect x="109.8" y="81" width="10.6" height="12" rx="1" fill="#2a1a44" opacity="0.6"/><rect x="122.4" y="81" width="10.6" height="12" rx="1" fill="#2a1a44" opacity="0.6"/><rect x="135.0" y="81" width="10.6" height="12" rx="1" fill="#2a1a44" opacity="0.6"/><rect x="147.6" y="81" width="10.6" height="12" rx="1" fill="#2a1a44" opacity="0.6"/><rect x="160.2" y="81" width="10.6" height="12" rx="1" fill="#2a1a44" opacity="0.6"/><rect x="172.8" y="81" width="10.6" height="12" rx="1" fill="#2a1a44" opacity="0.6"/><rect x="185.4" y="81" width="10.6" height="12" rx="1" fill="#2a1a44" opacity="0.6"/><rect x="198.0" y="81" width="10.6" height="12" rx="1" fill="#2a1a44" opacity="0.6"/><rect x="210.6" y="81" width="10.6" height="12" rx="1" fill="#2a1a44" opacity="0.6"/><rect x="223.2" y="81" width="10.6" height="12" rx="1" fill="#2a1a44" opacity="0.6"/><rect x="235.8" y="81" width="10.6" height="12" rx="1" fill="#2a1a44" opacity="0.6"/><rect x="248.4" y="81" width="10.6" height="12" rx="1" fill="#2a1a44" opacity="0.6"/><rect x="261.0" y="81" width="10.6" height="12" rx="1" fill="#2a1a44" opacity="0.6"/><rect x="273.6" y="81" width="10.6" height="12" rx="1" fill="#2a1a44" opacity="0.6"/><rect x="286.2" y="81" width="10.6" height="12" rx="1" fill="#2a1a44" opacity="0.6"/><rect x="298.8" y="81" width="10.6" height="12" rx="1" fill="#2a1a44" opacity="0.6"/><rect x="311.4" y="81" width="10.6" height="12" rx="1" fill="#2a1a44" opacity="0.6"/><text x="442" y="92" font-family="monospace" font-size="12" font-weight="400" fill="#e0c3fc" text-anchor="end">0 commits</text><text x="22" y="119" font-family="'Press Start 2P', monospace" font-size="11" font-weight="400" fill="#ff2e97" text-anchor="start">DEF</text><rect x="72.0" y="108" width="10.6" height="12" rx="1" fill="#2a1a44" opacity="0.6"/><rect x="84.6" y="108" width="10.6" height="12" rx="1" fill="#2a1a44" opacity="0.6"/><rect x="97.2" y="108" width="10.6" height="12" rx="1" fill="#2a1a44" opacity="0.6"/><rect x="109.8" y="108" width="10.6" height="12" rx="1" fill="#2a1a44" opacity="0.6"/><rect x="122.4" y="108" width="10.6" height="12" rx="1" fill="#2a1a44" opacity="0.6"/><rect x="135.0" y="108" width="10.6" height="12" rx="1" fill="#2a1a44" opacity="0.6"/><rect x="147.6" y="108" width="10.6" height="12" rx="1" fill="#2a1a44" opacity="0.6"/><rect x="160.2" y="108" width="10.6" height="12" rx="1" fill="#2a1a44" opacity="0.6"/><rect x="172.8" y="108" width="10.6" height="12" rx="1" fill="#2a1a44" opacity="0.6"/><rect x="185.4" y="108" width="10.6" height="12" rx="1" fill="#2a1a44" opacity="0.6"/><rect x="198.0" y="108" width="10.6" height="12" rx="1" fill="#2a1a44" opacity="0.6"/><rect x="210.6" y="108" width="10.6" height="12" rx="1" fill="#2a1a44" opacity="0.6"/><rect x="223.2" y="108" width="10.6" height="12" rx="1" fill="#2a1a44" opacity="0.6"/><rect x="235.8" y="108" width="10.6" height="12" rx="1" fill="#2a1a44" opacity="0.6"/><rect x="248.4" y="108" width="10.6" height="12" rx="1" fill="#2a1a44" opacity="0.6"/><rect x="261.0" y="108" width="10.6" height="12" rx="1" fill="#2a1a44" opacity="0.6"/><rect x="273.6" y="108" width="10.6" height="12" rx="1" fill="#2a1a44" opacity="0.6"/><rect x="286.2" y="108" width="10.6" height="12" rx="1" fill="#2a1a44" opacity="0.6"/><rect x="298.8" y="108" width="10.6" height="12" rx="1" fill="#2a1a44" opacity="0.6"/><rect x="311.4" y="108" width="10.6" height="12" rx="1" fill="#2a1a44" opacity="0.6"/><text x="442" y="119" font-family="monospace" font-size="12" font-weight="400" fill="#e0c3fc" text-anchor="end">0 pull reqs</text><text x="22" y="146" font-family="'Press Start 2P', monospace" font-size="11" font-weight="400" fill="#ff2e97" text-anchor="start">MAG</text><rect x="72.0" y="135" width="10.6" height="12" rx="1" fill="#2a1a44" opacity="0.6"/><rect x="84.6" y="135" width="10.6" height="12" rx="1" fill="#2a1a44" opacity="0.6"/><rect x="97.2" y="135" width="10.6" height="12" rx="1" fill="#2a1a44" opacity="0.6"/><rect x="109.8" y="135" width="10.6" height="12" rx="1" fill="#2a1a44" opacity="0.6"/><rect x="122.4" y="135" width="10.6" height="12" rx="1" fill="#2a1a44" opacity="0.6"/><rect x="135.0" y="135" width="10.6" height="12" rx="1" fill="#2a1a44" opacity="0.6"/><rect x="147.6" y="135" width="10.6" height="12" rx="1" fill="#2a1a44" opacity="0.6"/><rect x="160.2" y="135" width="10.6" height="12" rx="1" fill="#2a1a44" opacity="0.6"/><rect x="172.8" y="135" width="10.6" height="12" rx="1" fill="#2a1a44" opacity="0.6"/><rect x="185.4" y="135" width="10.6" height="12" rx="1" fill="#2a1a44" opacity="0.6"/><rect x="198.0" y="135" width="10.6" height="12" rx="1" fill="#2a1a44" opacity="0.6"/><rect x="210.6" y="135" width="10.6" height="12" rx="1" fill="#2a1a44" opacity="0.6"/><rect x="223.2" y="135" width="10.6" height="12" rx="1" fill="#2a1a44" opacity="0.6"/><rect x="235.8" y="135" width="10.6" height="12" rx="1" fill="#2a1a44" opacity="0.6"/><rect x="248.4" y="135" width="10.6" height="12" rx="1" fill="#2a1a44" opacity="0.6"/><rect x="261.0" y="135" width="10.6" height="12" rx="1" fill="#2a1a44" opacity="0.6"/><rect x="273.6" y="135" width="10.6" height="12" rx="1" fill="#2a1a44" opacity="0.6"/><rect x="286.2" y="135" width="10.6" height="12" rx="1" fill="#2a1a44" opacity="0.6"/><rect x="298.8" y="135" width="10.6" height="12" rx="1" fill="#2a1a44" opacity="0.6"/><rect x="311.4" y="135" width="10.6" height="12" rx="1" fill="#2a1a44" opacity="0.6"/><text x="442" y="146" font-family="monospace" font-size="12" font-weight="400" fill="#e0c3fc" text-anchor="end">0 issues</text><text x="22" y="173" font-family="'Press Start 2P', monospace" font-size="11" font-weight="400" fill="#ff2e97" text-anchor="start">LCK</text><rect x="72.0" y="162" width="10.6" height="12" rx="1" fill="#2a1a44" opacity="0.6"/><rect x="84.6" y="162" width="10.6" height="12" rx="1" fill="#2a1a44" opacity="0.6"/><rect x="97.2" y="162" width="10.6" height="12" rx="1" fill="#2a1a44" opacity="0.6"/><rect x="109.8" y="162" width="10.6" height="12" rx="1" fill="#2a1a44" opacity="0.6"/><rect x="122.4" y="162" width="10.6" height="12" rx="1" fill="#2a1a44" opacity="0.6"/><rect x="135.0" y="162" width="10.6" height="12" rx="1" fill="#2a1a44" opacity="0.6"/><rect x="147.6" y="162" width="10.6" height="12" rx="1" fill="#2a1a44" opacity="0.6"/><rect x="160.2" y="162" width="10.6" height="12" rx="1" fill="#2a1a44" opacity="0.6"/><rect x="172.8" y="162" width="10.6" height="12" rx="1" fill="#2a1a44" opacity="0.6"/><rect x="185.4" y="162" width="10.6" height="12" rx="1" fill="#2a1a44" opacity="0.6"/><rect x="198.0" y="162" width="10.6" height="12" rx="1" fill="#2a1a44" opacity="0.6"/><rect x="210.6" y="162" width="10.6" height="12" rx="1" fill="#2a1a44" opacity="0.6"/><rect x="223.2" y="162" width="10.6" height="12" rx="1" fill="#2a1a44" opacity="0.6"/><rect x="235.8" y="162" width="10.6" height="12" rx="1" fill="#2a1a44" opacity="0.6"/><rect x="248.4" y="162" width="10.6" height="12" rx="1" fill="#2a1a44" opacity="0.6"/><rect x="261.0" y="162" width="10.6" height="12" rx="1" fill="#2a1a44" opacity="0.6"/><rect x="273.6" y="162" width="10.6" height="12" rx="1" fill="#2a1a44" opacity="0.6"/><rect x="286.2" y="162" width="10.6" height="12" rx="1" fill="#2a1a44" opacity="0.6"/><rect x="298.8" y="162" width="10.6" height="12" rx="1" fill="#2a1a44" opacity="0.6"/><rect x="311.4" y="162" width="10.6" height="12" rx="1" fill="#2a1a44" opacity="0.6"/><text x="442" y="173" font-family="monospace" font-size="12" font-weight="400" fill="#e0c3fc" text-anchor="end">0 stars</text><text x="230.0" y="202" font-family="monospace" font-size="11" font-weight="400" fill="#ff6bd6" text-anchor="middle">REPOS 0  &#9670;  FOLLOWERS 0</text></svg>
